<?xml version="1.0" encoding="UTF-8"?>
<svg xmlns="http://www.w3.org/2000/svg" xmlns:xlink="http://www.w3.org/1999/xlink" width="36pt" height="36pt" viewBox="0 0 36 36" version="1.1">
<defs>
<linearGradient id="linear0" gradientUnits="userSpaceOnUse" x1="366.68536" y1="640.21997" x2="366.68536" y2="327.83759" gradientTransform="matrix(0.113316,0,0,0.112737,-22.033525,-32.330259)">
<stop offset="0" style="stop-color:rgb(78.823529%,78.823529%,78.823529%);stop-opacity:1;"/>
<stop offset="1" style="stop-color:rgb(100%,100%,100%);stop-opacity:1;"/>
</linearGradient>
<linearGradient id="linear1" gradientUnits="userSpaceOnUse" x1="366.42856" y1="638.79077" x2="366.42856" y2="465.47116" gradientTransform="matrix(0.113316,0,0,0.112737,-22.033525,-32.330259)">
<stop offset="0" style="stop-color:rgb(41.568627%,56.078431%,77.647059%);stop-opacity:1;"/>
<stop offset="1" style="stop-color:rgb(59.215686%,72.54902%,92.54902%);stop-opacity:1;"/>
</linearGradient>
<linearGradient id="linear2" gradientUnits="userSpaceOnUse" x1="368.21429" y1="476.64789" x2="368.21429" y2="552.09613" gradientTransform="matrix(0.113316,0,0,0.112737,-22.033525,-32.330259)">
<stop offset="0" style="stop-color:rgb(100%,100%,100%);stop-opacity:0.392157;"/>
<stop offset="1" style="stop-color:rgb(100%,100%,100%);stop-opacity:0;"/>
</linearGradient>
<filter id="alpha" filterUnits="objectBoundingBox" x="0%" y="0%" width="100%" height="100%">
  <feColorMatrix type="matrix" in="SourceGraphic" values="0 0 0 0 1 0 0 0 0 1 0 0 0 0 1 0 0 0 1 0"/>
</filter>
<mask id="mask0">
  <g filter="url(#alpha)">
<rect x="0" y="0" width="40" height="40" style="fill:rgb(0%,0%,0%);fill-opacity:0.501961;stroke:none;"/>
  </g>
</mask>
<clipPath id="clip1">
  <rect width="40" height="40"/>
</clipPath>
<g id="surface6" clip-path="url(#clip1)">
<path style=" stroke:none;fill-rule:nonzero;fill:rgb(90.196078%,90.196078%,90.196078%);fill-opacity:1;" d="M 24.738281 28.824219 C 24.089844 28.824219 23.5625 29.34375 23.5625 29.988281 C 23.5625 30.425781 23.820312 30.796875 24.179688 30.996094 C 24.15625 30.960938 24.125 30.933594 24.109375 30.894531 C 24.046875 30.753906 24.015625 30.601562 24.015625 30.4375 C 24.015625 30.277344 24.046875 30.125 24.109375 29.984375 C 24.167969 29.84375 24.257812 29.71875 24.363281 29.613281 C 24.46875 29.507812 24.59375 29.425781 24.734375 29.363281 C 24.875 29.304688 25.027344 29.273438 25.191406 29.273438 C 25.351562 29.273438 25.507812 29.304688 25.648438 29.363281 C 25.6875 29.382812 25.714844 29.410156 25.75 29.433594 C 25.550781 29.074219 25.179688 28.824219 24.738281 28.824219 Z M 24.738281 28.824219 "/>
</g>
</defs>
<g id="surface1">
<path style=" stroke:none;fill-rule:nonzero;fill:url(#linear0);" d="M 35.582031 20.144531 L 19.996094 4.628906 L 4.414062 20.144531 L 4.414062 38.542969 C 4.414062 38.71875 4.453125 38.890625 4.515625 39.042969 C 4.582031 39.199219 4.675781 39.339844 4.792969 39.457031 C 4.910156 39.574219 5.050781 39.664062 5.207031 39.730469 C 5.363281 39.796875 5.53125 39.832031 5.710938 39.832031 L 34.28125 39.832031 C 34.460938 39.832031 34.632812 39.796875 34.789062 39.730469 C 34.941406 39.664062 35.082031 39.574219 35.199219 39.457031 C 35.320312 39.339844 35.410156 39.199219 35.476562 39.042969 C 35.542969 38.890625 35.582031 38.71875 35.582031 38.542969 Z M 35.582031 20.144531 "/>
<path style=" stroke:none;fill-rule:nonzero;fill:rgb(94.901961%,94.901961%,94.901961%);fill-opacity:1;" d="M 36.316406 15.457031 L 21.363281 0.558594 C 21.179688 0.378906 20.957031 0.234375 20.722656 0.136719 C 20.484375 0.0429688 20.234375 -0.00390625 19.972656 0 C 19.722656 0.00390625 19.476562 0.0546875 19.25 0.148438 C 19.023438 0.242188 18.816406 0.382812 18.640625 0.558594 L 3.679688 15.457031 L 3.679688 20.878906 L 19.996094 4.628906 L 36.316406 20.878906 Z M 36.316406 15.457031 "/>
<path style=" stroke:none;fill-rule:nonzero;fill:rgb(70.196078%,70.196078%,70.196078%);fill-opacity:1;" d="M 35.582031 14.726562 L 21.363281 0.558594 C 21.179688 0.378906 20.957031 0.234375 20.722656 0.136719 C 20.484375 0.0429688 20.234375 -0.00390625 19.972656 0 C 19.722656 0.00390625 19.476562 0.0546875 19.25 0.148438 C 19.023438 0.242188 18.816406 0.382812 18.640625 0.558594 L 4.414062 14.726562 L 4.414062 20.144531 L 19.996094 4.628906 L 35.582031 20.144531 Z M 35.582031 14.726562 "/>
<path style=" stroke:none;fill-rule:nonzero;fill:rgb(66.666667%,0%,0%);fill-opacity:1;" d="M 5.710938 2.582031 C 5.53125 2.582031 5.363281 2.625 5.207031 2.6875 C 5.054688 2.753906 4.910156 2.84375 4.792969 2.960938 C 4.675781 3.078125 4.582031 3.21875 4.519531 3.371094 C 4.453125 3.527344 4.414062 3.699219 4.414062 3.875 L 4.414062 20.144531 L 11.308594 13.277344 L 11.308594 3.875 C 11.308594 3.699219 11.273438 3.527344 11.207031 3.371094 C 11.140625 3.21875 11.046875 3.078125 10.929688 2.960938 C 10.8125 2.84375 10.671875 2.753906 10.515625 2.6875 C 10.359375 2.625 10.191406 2.582031 10.011719 2.582031 Z M 5.710938 2.582031 "/>
<path style=" stroke:none;fill-rule:nonzero;fill:rgb(29.803922%,29.803922%,29.803922%);fill-opacity:1;" d="M 19.972656 0 C 19.472656 0.0078125 18.996094 0.207031 18.640625 0.558594 L 0.5625 18.554688 C -0.1875 19.304688 -0.1875 20.519531 0.5625 21.265625 C 1.316406 22.015625 2.535156 22.015625 3.289062 21.265625 L 19.996094 4.628906 L 36.707031 21.265625 C 37.457031 22.015625 38.679688 22.015625 39.429688 21.265625 C 40.183594 20.519531 40.183594 19.304688 39.429688 18.554688 L 21.363281 0.558594 C 20.996094 0.195312 20.496094 -0.0078125 19.972656 0 Z M 19.972656 0 "/>
<path style=" stroke:none;fill-rule:nonzero;fill:url(#linear1);" d="M 27.488281 39.832031 L 12.503906 39.832031 L 12.503906 21.4375 C 12.503906 21.257812 12.542969 21.089844 12.609375 20.933594 C 12.671875 20.78125 12.765625 20.640625 12.882812 20.523438 C 13 20.40625 13.140625 20.3125 13.296875 20.25 C 13.453125 20.183594 13.625 20.144531 13.804688 20.144531 L 26.191406 20.144531 C 26.371094 20.144531 26.542969 20.183594 26.695312 20.25 C 26.851562 20.3125 26.992188 20.40625 27.109375 20.523438 C 27.226562 20.640625 27.320312 20.78125 27.386719 20.933594 C 27.453125 21.089844 27.488281 21.257812 27.488281 21.4375 Z M 27.488281 39.832031 "/>
<path style=" stroke:none;fill-rule:nonzero;fill:url(#linear2);" d="M 14.9375 21.273438 C 14.757812 21.273438 14.585938 21.308594 14.429688 21.375 C 14.273438 21.441406 14.132812 21.53125 14.015625 21.648438 C 13.898438 21.765625 13.808594 21.90625 13.742188 22.0625 C 13.675781 22.214844 13.636719 22.386719 13.636719 22.566406 L 13.636719 29.6875 L 13.667969 29.6875 C 13.964844 30.816406 16.683594 27.1875 19.996094 27.1875 C 23.308594 27.1875 26.03125 30.816406 26.328125 29.6875 L 26.355469 29.6875 L 26.355469 22.566406 C 26.355469 22.386719 26.320312 22.214844 26.253906 22.0625 C 26.1875 21.90625 26.09375 21.765625 25.976562 21.648438 C 25.859375 21.53125 25.71875 21.441406 25.5625 21.375 C 25.40625 21.308594 25.234375 21.273438 25.054688 21.273438 Z M 14.9375 21.273438 "/>
<path style=" stroke:none;fill-rule:nonzero;fill:rgb(29.803922%,29.803922%,29.803922%);fill-opacity:1;" d="M 26.355469 29.988281 C 26.355469 30.878906 25.632812 31.601562 24.738281 31.601562 C 23.84375 31.601562 23.117188 30.878906 23.117188 29.988281 C 23.117188 29.101562 23.84375 28.378906 24.738281 28.378906 C 25.632812 28.378906 26.355469 29.101562 26.355469 29.988281 Z M 26.355469 29.988281 "/>
<use xlink:href="#surface6" mask="url(#mask0)"/>
</g>
</svg>
